<mxfile host="app.diagrams.net" agent="Mozilla/5.0 (Windows NT 10.0; Win64; x64) AppleWebKit/537.36 (KHTML, like Gecko) Chrome/135.0.0.0 Safari/537.36" version="26.2.13">
  <diagram name="第 1 页" id="bXbiH3EwShpQN_3dVzvC">
    <mxGraphModel dx="566" dy="480" grid="1" gridSize="10" guides="1" tooltips="1" connect="1" arrows="1" fold="1" page="1" pageScale="1" pageWidth="827" pageHeight="1169" math="0" shadow="0">
      <root>
        <mxCell id="0" />
        <mxCell id="1" parent="0" />
        <mxCell id="T0GfKvfOkViN-3Pl21w1-7" style="edgeStyle=none;rounded=0;orthogonalLoop=1;jettySize=auto;html=1;exitX=1;exitY=0.3333333333333333;exitDx=0;exitDy=0;exitPerimeter=0;entryX=0;entryY=0.5;entryDx=0;entryDy=0;" edge="1" parent="1" source="rSCCLJno3e1j1hXcmhqp-1" target="2t82qzao_Dj3ipLsuFm_-3">
          <mxGeometry relative="1" as="geometry" />
        </mxCell>
        <mxCell id="T0GfKvfOkViN-3Pl21w1-8" style="edgeStyle=none;rounded=0;orthogonalLoop=1;jettySize=auto;html=1;exitX=1;exitY=0.3333333333333333;exitDx=0;exitDy=0;exitPerimeter=0;entryX=0;entryY=0.5;entryDx=0;entryDy=0;" edge="1" parent="1" source="rSCCLJno3e1j1hXcmhqp-1" target="T0GfKvfOkViN-3Pl21w1-1">
          <mxGeometry relative="1" as="geometry" />
        </mxCell>
        <mxCell id="T0GfKvfOkViN-3Pl21w1-9" style="edgeStyle=none;rounded=0;orthogonalLoop=1;jettySize=auto;html=1;exitX=1;exitY=0.3333333333333333;exitDx=0;exitDy=0;exitPerimeter=0;entryX=0;entryY=0.5;entryDx=0;entryDy=0;" edge="1" parent="1" source="rSCCLJno3e1j1hXcmhqp-1" target="T0GfKvfOkViN-3Pl21w1-2">
          <mxGeometry relative="1" as="geometry" />
        </mxCell>
        <mxCell id="T0GfKvfOkViN-3Pl21w1-10" style="edgeStyle=none;rounded=0;orthogonalLoop=1;jettySize=auto;html=1;exitX=1;exitY=0.3333333333333333;exitDx=0;exitDy=0;exitPerimeter=0;entryX=0;entryY=0.5;entryDx=0;entryDy=0;" edge="1" parent="1" source="rSCCLJno3e1j1hXcmhqp-1" target="T0GfKvfOkViN-3Pl21w1-4">
          <mxGeometry relative="1" as="geometry" />
        </mxCell>
        <mxCell id="rSCCLJno3e1j1hXcmhqp-1" value="用户" style="shape=umlActor;verticalLabelPosition=bottom;verticalAlign=top;html=1;outlineConnect=0;" parent="1" vertex="1">
          <mxGeometry x="140" y="119.99999999999999" width="30" height="60" as="geometry" />
        </mxCell>
        <mxCell id="2t82qzao_Dj3ipLsuFm_-3" value="查看当前积分" style="ellipse;whiteSpace=wrap;html=1;" parent="1" vertex="1">
          <mxGeometry x="226.75" y="46.66" width="94.5" height="36.67" as="geometry" />
        </mxCell>
        <mxCell id="T0GfKvfOkViN-3Pl21w1-1" value="查看积分收支记录" style="ellipse;whiteSpace=wrap;html=1;" vertex="1" parent="1">
          <mxGeometry x="214" y="94.99" width="120" height="36.67" as="geometry" />
        </mxCell>
        <mxCell id="T0GfKvfOkViN-3Pl21w1-2" value="查看兑换记录" style="ellipse;whiteSpace=wrap;html=1;" vertex="1" parent="1">
          <mxGeometry x="220" y="143.32999999999998" width="108" height="36.67" as="geometry" />
        </mxCell>
        <mxCell id="T0GfKvfOkViN-3Pl21w1-4" value="兑换奖品" style="ellipse;whiteSpace=wrap;html=1;" vertex="1" parent="1">
          <mxGeometry x="220" y="190" width="108" height="36.67" as="geometry" />
        </mxCell>
      </root>
    </mxGraphModel>
  </diagram>
</mxfile>
